<?xml version="1.0" encoding="UTF-8"?>
<svg width="53px" height="52px" viewBox="0 0 53 52" version="1.1" xmlns="http://www.w3.org/2000/svg" xmlns:xlink="http://www.w3.org/1999/xlink">
    <!-- Generator: Sketch 44.1 (41455) - http://www.bohemiancoding.com/sketch -->
    <title>Group 4</title>
    <desc>Created with Sketch.</desc>
    <defs></defs>
    <g id="Page-1" stroke="none" stroke-width="1" fill="none" fill-rule="evenodd">
        <g id="主管首页" transform="translate(-552.000000, -455.000000)" fill="#94BF24">
            <g id="Group-4" transform="translate(552.000000, 455.000000)">
                <path d="M25.7975,46.3616 L22.1865,42.8686 L23.5395,34.0686 L27.8855,34.0686 L29.0685,42.9696 L25.7975,46.3616 Z M28.7735,32.7526 L22.7365,32.7526 L20.8205,43.6396 L25.8755,48.4036 L30.2355,43.7036 L28.7735,32.7526 Z" id="Fill-85"></path>
                <path d="M25.4608,1.358 C17.8258,1.358 11.6138,7.57 11.6138,15.205 C11.6138,22.839 17.8258,29.051 25.4608,29.051 C33.0958,29.051 39.3078,22.839 39.3078,15.205 C39.3078,7.57 33.0958,1.358 25.4608,1.358 M25.4608,30.251 C17.1638,30.251 10.4148,23.502 10.4148,15.205 C10.4148,6.908 17.1638,0.159 25.4608,0.159 C33.7578,0.159 40.5068,6.908 40.5068,15.205 C40.5068,23.502 33.7578,30.251 25.4608,30.251" id="Fill-87"></path>
                <path d="M33.2489,29.4873 L31.4929,29.0703 L26.7939,30.0103 C39.0749,30.0103 50.2529,38.8343 51.2029,49.2773 L51.2729,50.0413 L2.2179,50.0413 L2.2789,49.2853 C2.8149,42.5713 7.2519,36.4243 14.1489,32.8373 C14.2879,32.7673 14.3929,32.6423 14.4369,32.4933 C14.4799,32.3473 14.4629,32.2003 14.3869,32.0683 C14.2579,31.8483 14.0599,31.7163 13.8549,31.7163 C13.7659,31.7163 13.6769,31.7443 13.5509,31.8153 C5.7629,35.6073 0.9249,42.8303 0.9249,50.6643 L0.9249,51.2873 L52.4519,51.2873 L52.4519,50.6643 C52.4519,41.0283 44.3759,32.1223 33.2489,29.4873" id="Fill-89"></path>
            </g>
        </g>
    </g>
</svg>