<?xml version="1.0" encoding="UTF-8"?>
<svg width="52px" height="49px" viewBox="0 0 52 49" version="1.1" xmlns="http://www.w3.org/2000/svg" xmlns:xlink="http://www.w3.org/1999/xlink">
    <!-- Generator: Sketch 44.1 (41455) - http://www.bohemiancoding.com/sketch -->
    <title>Group 21</title>
    <desc>Created with Sketch.</desc>
    <defs></defs>
    <g id="Page-1" stroke="none" stroke-width="1" fill="none" fill-rule="evenodd">
        <g id="主管首页" transform="translate(-554.000000, -1094.000000)" fill="#94BF24">
            <g id="Group-21" transform="translate(554.000000, 1094.000000)">
                <path d="M23.6357,29.5643 C23.2667,29.5643 22.9657,29.2633 22.9657,28.8943 L22.9657,13.5743 C22.9657,13.2043 23.2667,12.9033 23.6357,12.9033 C24.0047,12.9033 24.3057,13.2043 24.3057,13.5743 L24.3057,28.8943 C24.3057,29.2633 24.0047,29.5643 23.6357,29.5643" id="Fill-247"></path>
                <path d="M23.6357,36.7742 C23.2667,36.7742 22.9657,36.4732 22.9657,36.1042 L22.9657,34.0002 C22.9657,33.6312 23.2667,33.3302 23.6357,33.3302 C24.0047,33.3302 24.3057,33.6312 24.3057,34.0002 L24.3057,36.1042 C24.3057,36.4732 24.0047,36.7742 23.6357,36.7742" id="Fill-249"></path>
                <path d="M47.1932,45.2196 L45.1092,43.9786 L44.9122,43.8606 L44.7002,43.9496 C44.5502,44.0126 44.3962,44.0696 44.2412,44.1216 L43.9942,44.2046 L43.9402,44.4596 L43.4952,46.5576 L40.5462,46.5576 L39.9952,44.3296 L39.9382,44.0996 L39.7172,44.0146 C39.5802,43.9606 39.4442,43.9026 39.3102,43.8396 L39.0822,43.7336 L38.8712,43.8686 L36.9362,45.1086 L34.8602,43.0846 L36.1222,41.0726 L36.2512,40.8666 L36.1522,40.6446 C36.0842,40.4906 36.0212,40.3336 35.9652,40.1746 L35.8792,39.9296 L35.6252,39.8786 L33.4702,39.4436 L33.4702,36.5956 L35.7592,36.0566 L35.9872,36.0026 L36.0762,35.7856 C36.1402,35.6286 36.2112,35.4736 36.2882,35.3226 L36.4082,35.0856 L36.2612,34.8646 L35.0962,33.1086 L37.1602,31.0656 L39.1512,32.2706 L39.3492,32.3906 L39.5622,32.3016 C39.6862,32.2496 39.8122,32.2016 39.9392,32.1576 L40.1722,32.0766 L40.2312,31.8366 L40.7612,29.6956 L43.7092,29.6956 L44.1722,31.8756 L44.2242,32.1196 L44.4582,32.2076 C44.6492,32.2786 44.8362,32.3586 45.0192,32.4466 L45.2462,32.5566 L45.4602,32.4216 L47.2792,31.2746 L49.3762,33.2876 L48.1512,35.2106 L48.0202,35.4156 L48.1182,35.6386 C48.1852,35.7916 48.2472,35.9486 48.3012,36.1066 L48.3832,36.3436 L48.6282,36.4016 L50.7872,36.9096 L50.7872,39.7576 L48.5022,40.2186 L48.2642,40.2666 L48.1712,40.4906 C48.1162,40.6246 48.0552,40.7576 47.9902,40.8876 L47.8722,41.1256 L48.0202,41.3456 L49.2682,43.1966 L47.1932,45.2196 Z M51.3472,36.1046 L49.0752,35.5706 C49.0662,35.5466 49.0572,35.5236 49.0472,35.4996 L50.3452,33.4616 L50.5462,33.1466 L50.2772,32.8886 L47.6532,30.3706 L47.3962,30.1236 L47.0942,30.3136 L45.1812,31.5196 C45.1262,31.4956 45.0702,31.4716 45.0132,31.4476 L44.5242,29.1456 L44.4482,28.7846 L44.0792,28.7846 L40.4052,28.7846 L40.0482,28.7846 L39.9622,29.1306 L39.4102,31.3616 L37.3282,30.1026 L37.0242,29.9186 L36.7712,30.1686 L34.1892,32.7246 L33.9222,32.9886 L34.1302,33.3006 L35.3582,35.1526 C35.3482,35.1756 35.3382,35.1986 35.3272,35.2216 L32.9102,35.7906 L32.5582,35.8736 L32.5582,36.2346 L32.5582,39.8166 L32.5582,40.1896 L32.9242,40.2636 L35.1972,40.7216 C35.2062,40.7446 35.2152,40.7666 35.2242,40.7886 L33.8932,42.9126 L33.6982,43.2246 L33.9612,43.4806 L36.5592,46.0136 L36.8182,46.2666 L37.1232,46.0716 L39.1552,44.7686 C39.1592,44.7706 39.1622,44.7716 39.1662,44.7736 L39.7472,47.1226 L39.8332,47.4686 L40.1902,47.4686 L43.8642,47.4686 L44.2332,47.4686 L44.3102,47.1076 L44.7792,44.8976 C44.7982,44.8906 44.8172,44.8836 44.8362,44.8756 L47.0272,46.1816 L47.3282,46.3606 L47.5792,46.1166 L50.1762,43.5836 L50.4492,43.3176 L50.2362,43.0026 L48.9292,41.0626 L51.3332,40.5776 L51.6992,40.5036 L51.6992,40.1306 L51.6992,36.5486 L51.6992,36.1876 L51.3472,36.1046 Z" id="Fill-251"></path>
                <path d="M42.3566,34.2528 C40.2176,34.2528 38.4826,35.9868 38.4826,38.1268 C38.4826,40.2658 40.2176,41.9998 42.3566,41.9998 C42.9046,41.9998 43.4376,41.8858 43.9276,41.6678 C44.1576,41.5658 44.2616,41.2968 44.1596,41.0668 C44.0576,40.8368 43.7876,40.7328 43.5576,40.8348 C43.1836,41.0018 42.7766,41.0888 42.3566,41.0888 C40.7206,41.0888 39.3946,39.7628 39.3946,38.1268 C39.3946,36.4908 40.7206,35.1638 42.3566,35.1638 C43.9926,35.1638 45.3186,36.4908 45.3186,38.1268 C45.3186,38.3428 45.2956,38.5558 45.2506,38.7628 C45.1966,39.0088 45.3526,39.2518 45.5986,39.3048 C45.8436,39.3588 46.0866,39.2028 46.1406,38.9578 C46.1996,38.6858 46.2306,38.4078 46.2306,38.1268 C46.2306,35.9868 44.4956,34.2528 42.3566,34.2528" id="Fill-253"></path>
                <path d="M9.6491,7.0217 C9.8021,7.0217 9.9471,6.9717 10.0661,6.8757 C14.1291,3.6387 19.0291,1.9287 24.2361,1.9287 C36.7861,1.9287 46.9961,12.1387 46.9961,24.6887 C46.9961,26.4507 46.7881,28.1637 46.4081,29.8117 L47.0611,30.1017 L47.8291,29.6167 C48.1611,28.0257 48.3371,26.3777 48.3371,24.6887 C48.3371,11.3997 37.5251,0.5877 24.2361,0.5877 C18.7231,0.5877 13.5341,2.3997 9.2311,5.8277 C9.0911,5.9387 9.0031,6.0987 8.9831,6.2757 C8.9621,6.4537 9.0131,6.6287 9.1251,6.7687 C9.2521,6.9297 9.4441,7.0217 9.6491,7.0217" id="Fill-255"></path>
                <path d="M34.1535,45.1725 L34.1555,45.1705 C31.1555,46.6285 27.7895,47.4485 24.2365,47.4485 C11.6855,47.4485 1.4755,37.2385 1.4755,24.6885 C1.4755,20.4265 2.6605,16.2705 4.9035,12.6705 C5.0985,12.3565 5.0015,11.9425 4.6885,11.7475 C4.5825,11.6815 4.4605,11.6465 4.3365,11.6465 C4.1025,11.6465 3.8895,11.7645 3.7655,11.9625 C1.3905,15.7735 0.1355,20.1745 0.1355,24.6885 C0.1355,37.9775 10.9465,48.7895 24.2365,48.7895 C28.1695,48.7895 31.8815,47.8365 35.1645,46.1585 L34.1535,45.1725 Z" id="Fill-257"></path>
            </g>
        </g>
    </g>
</svg>