<?xml version="1.0" encoding="UTF-8"?>
<svg width="55px" height="58px" viewBox="0 0 55 58" version="1.1" xmlns="http://www.w3.org/2000/svg" xmlns:xlink="http://www.w3.org/1999/xlink">
    <!-- Generator: Sketch 44.1 (41455) - http://www.bohemiancoding.com/sketch -->
    <title>Group 5</title>
    <desc>Created with Sketch.</desc>
    <defs></defs>
    <g id="Page-1" stroke="none" stroke-width="1" fill="none" fill-rule="evenodd">
        <g id="主管首页" transform="translate(-703.000000, -454.000000)" fill="#94BF24">
            <g id="Group-5" transform="translate(703.000000, 454.000000)">
                <path d="M2.2314,44.2754 C2.2314,46.8864 4.3704,49.0104 6.9994,49.0104 L22.9854,49.0104 L45.7864,25.6174 L45.7864,6.4094 C45.7864,3.7914 43.6474,1.6624 41.0174,1.6624 L2.2314,1.6624 L2.2314,44.2754 Z M6.9994,50.3304 C3.6334,50.3304 0.8944,47.6144 0.8944,44.2754 L0.8944,0.3414 L41.0174,0.3414 C44.3844,0.3414 47.1234,3.0634 47.1234,6.4094 L47.1234,26.5534 L23.6104,50.3304 L6.9994,50.3304 Z" id="Fill-91"></path>
                <path d="M45.2968,35.4169 L49.6848,39.6479 L52.6908,36.6229 L48.2018,32.2619 L45.2968,35.4169 Z M30.3128,50.2959 L28.9248,56.0309 L34.5498,54.8079 L48.7738,40.7459 L44.2948,36.3279 L30.3128,50.2959 Z M28.9678,49.8059 L44.3158,34.4579 L44.3268,34.4699 L44.8218,33.9639 L48.1598,30.4639 L54.4818,36.8229 L49.7138,41.6289 L49.3588,41.9769 L35.2488,56.0869 L27.3978,57.6579 L28.9678,49.8059 Z" id="Fill-93"></path>
                <path d="M7.8282,21.5122 C7.4592,21.5122 7.1592,21.2602 7.1592,20.9502 C7.1592,20.6412 7.4592,20.3902 7.8282,20.3902 L38.9372,20.3902 C39.3062,20.3902 39.6062,20.6412 39.6062,20.9502 C39.6062,21.2602 39.3062,21.5122 38.9372,21.5122 L7.8282,21.5122 Z" id="Fill-95"></path>
                <path d="M7.8282,12.7415 C7.4592,12.7415 7.1592,12.4895 7.1592,12.1795 C7.1592,11.8695 7.4592,11.6185 7.8282,11.6185 L38.9372,11.6185 C39.3062,11.6185 39.6062,11.8695 39.6062,12.1795 C39.6062,12.4895 39.3062,12.7415 38.9372,12.7415 L7.8282,12.7415 Z" id="Fill-97"></path>
            </g>
        </g>
    </g>
</svg>