<?xml version="1.0" encoding="UTF-8"?>
<svg width="50px" height="52px" viewBox="0 0 50 52" version="1.1" xmlns="http://www.w3.org/2000/svg" xmlns:xlink="http://www.w3.org/1999/xlink">
    <!-- Generator: Sketch 44.1 (41455) - http://www.bohemiancoding.com/sketch -->
    <title>Group 23</title>
    <desc>Created with Sketch.</desc>
    <defs></defs>
    <g id="Page-1" stroke="none" stroke-width="1" fill="none" fill-rule="evenodd">
        <g id="主管首页" transform="translate(-1000.000000, -1093.000000)" fill="#94BF24">
            <g id="Group-23" transform="translate(1000.000000, 1093.000000)">
                <path d="M8.5909,18.9109 C8.2069,18.9109 7.9179,18.6209 7.9179,18.2369 C7.9179,17.8349 8.2659,17.5639 8.5909,17.5639 L36.4449,17.5639 C36.7629,17.5639 37.1179,17.8409 37.1179,18.2369 C37.1179,18.6349 36.7629,18.9109 36.4449,18.9109 L8.5909,18.9109 Z" id="Fill-267"></path>
                <path d="M8.6935,11.5652 C8.2905,11.5652 8.0195,11.2162 8.0195,10.8912 C8.0195,10.4952 8.3755,10.2182 8.6935,10.2182 L36.5475,10.2182 C36.7325,10.2182 36.9645,10.3402 37.1115,10.5162 C37.1965,10.6192 37.2415,10.7282 37.2275,10.8012 C37.2195,11.2892 36.8655,11.5652 36.5475,11.5652 L8.6935,11.5652 Z" id="Fill-269"></path>
                <path d="M6.8566,49.2644 C3.3326,49.2644 0.5716,46.4584 0.5716,42.8764 L0.5716,0.5254 L37.0566,0.5254 C38.7526,0.5254 40.3366,1.1844 41.5176,2.3804 C42.7166,3.5964 43.3656,5.2214 43.3416,6.9564 L43.3416,24.9204 C43.3416,25.3064 43.0026,25.6444 42.6176,25.6444 C42.2316,25.6444 41.8926,25.3064 41.8926,24.9204 L41.8926,6.9634 C41.8926,4.2594 39.6776,1.9744 37.0566,1.9744 L1.9186,1.9744 L1.9186,42.9284 C1.9186,45.6324 4.1326,47.9174 6.7546,47.9174 L23.0796,47.9174 C23.3866,47.9454 23.6506,48.2354 23.6506,48.5904 C23.6506,48.9404 23.3956,49.2264 23.0546,49.2644 L6.8566,49.2644 Z" id="Fill-271"></path>
                <path d="M38.6884,29.6631 L38.6884,29.6631 C32.5674,29.6631 27.6044,34.6261 27.6044,40.7461 C27.6044,46.8701 32.5674,51.8311 38.6884,51.8311 C41.2304,51.8311 43.6414,50.9721 45.5894,49.4201 C45.8234,49.2361 45.8624,48.8951 45.6754,48.6611 C45.4884,48.4271 45.1494,48.3891 44.9154,48.5761 C43.1594,49.9751 40.9844,50.7501 38.6884,50.7501 C33.1644,50.7501 28.6864,46.2711 28.6864,40.7461 C28.6864,35.2231 33.1644,30.7451 38.6884,30.7451 C44.2134,30.7451 48.6914,35.2231 48.6914,40.7461 C48.6914,42.6411 48.1644,44.4561 47.1844,46.0291 C47.0284,46.2821 47.1054,46.6161 47.3584,46.7741 C47.6114,46.9321 47.9444,46.8531 48.1034,46.6011 C49.1884,44.8581 49.7734,42.8451 49.7734,40.7461 C49.7724,34.6261 44.8104,29.6631 38.6884,29.6631" id="Fill-273"></path>
                <path d="M45.5296,40.2104 L45.5296,40.2104 C45.5186,40.2104 45.5076,40.2114 45.4966,40.2114 C45.4916,40.2114 45.4866,40.2104 45.4836,40.2104 L39.0606,40.2104 L39.0606,33.7884 C39.0606,33.7774 39.0606,33.7674 39.0596,33.7574 C39.0606,33.7474 39.0606,33.7364 39.0606,33.7254 C39.0606,33.3974 38.7976,33.1314 38.4726,33.1314 C38.1476,33.1314 37.8846,33.3974 37.8846,33.7254 C37.8846,33.7364 37.8856,33.7464 37.8866,33.7574 C37.8856,33.7674 37.8846,33.7774 37.8846,33.7884 L37.8846,40.2044 C37.5566,40.2044 37.2916,40.4664 37.2906,40.7904 C37.2906,41.0844 37.5056,41.3274 37.7896,41.3724 C37.8186,41.3824 37.8506,41.3874 37.8816,41.3874 L37.8836,41.3874 L37.8836,41.3904 C37.8836,41.4034 37.8846,41.4194 37.8866,41.4304 C37.9106,41.7384 38.1626,41.9804 38.4736,41.9804 C38.7986,41.9804 39.0606,41.7144 39.0616,41.3874 L45.4836,41.3874 C45.4956,41.3874 45.5056,41.3874 45.5146,41.3864 L45.5276,41.3864 C45.8556,41.3874 46.1216,41.1244 46.1236,40.8004 C46.1226,40.4754 45.8586,40.2114 45.5296,40.2104" id="Fill-275"></path>
            </g>
        </g>
    </g>
</svg>