<?xml version="1.0" encoding="UTF-8"?>
<svg width="67px" height="49px" viewBox="0 0 67 49" version="1.1" xmlns="http://www.w3.org/2000/svg" xmlns:xlink="http://www.w3.org/1999/xlink">
    <!-- Generator: Sketch 44.1 (41455) - http://www.bohemiancoding.com/sketch -->
    <title>Group 27</title>
    <desc>Created with Sketch.</desc>
    <defs></defs>
    <g id="Page-1" stroke="none" stroke-width="1" fill="none" fill-rule="evenodd">
        <g id="主管首页" transform="translate(-546.000000, -1283.000000)" fill="#94BF24">
            <g id="Group-27" transform="translate(546.000000, 1283.000000)">
                <path d="M33.4271,8.063 L33.4271,8.063 C27.3061,8.063 22.3431,13.026 22.3431,19.146 C22.3431,25.27 27.3061,30.231 33.4271,30.231 C35.9691,30.231 38.3801,29.372 40.3281,27.82 C40.5621,27.636 40.6011,27.295 40.4141,27.061 C40.2271,26.827 39.8881,26.789 39.6541,26.976 C37.8981,28.375 35.7231,29.15 33.4271,29.15 C27.9031,29.15 23.4251,24.671 23.4251,19.146 C23.4251,13.623 27.9031,9.145 33.4271,9.145 C38.9521,9.145 43.4301,13.623 43.4301,19.146 C43.4301,21.041 42.9031,22.856 41.9241,24.429 C41.7671,24.682 41.8441,25.016 42.0971,25.174 C42.3501,25.332 42.6831,25.253 42.8411,25.001 C43.9271,23.258 44.5121,21.245 44.5121,19.146 C44.5111,13.026 39.5491,8.063 33.4271,8.063" id="Fill-293"></path>
                <path d="M40.2683,18.6104 L40.2683,18.6104 C40.2573,18.6104 40.2463,18.6114 40.2353,18.6114 C40.2303,18.6114 40.2253,18.6104 40.2223,18.6104 L33.7993,18.6104 L33.7993,12.1884 C33.7993,12.1774 33.7993,12.1674 33.7983,12.1574 C33.7993,12.1474 33.7993,12.1364 33.7993,12.1254 C33.7993,11.7974 33.5363,11.5314 33.2113,11.5314 C32.8863,11.5314 32.6233,11.7974 32.6233,12.1254 C32.6233,12.1364 32.6243,12.1464 32.6253,12.1574 C32.6243,12.1674 32.6233,12.1774 32.6233,12.1884 L32.6233,18.6044 C32.2953,18.6044 32.0303,18.8664 32.0293,19.1904 C32.0293,19.4844 32.2443,19.7274 32.5283,19.7724 C32.5573,19.7824 32.5893,19.7874 32.6203,19.7874 L32.6223,19.7874 L32.6223,19.7904 C32.6223,19.8034 32.6233,19.8194 32.6253,19.8304 C32.6493,20.1384 32.9013,20.3804 33.2123,20.3804 C33.5373,20.3804 33.7993,20.1144 33.8003,19.7874 L40.2223,19.7874 C40.2343,19.7874 40.2443,19.7874 40.2533,19.7864 L40.2663,19.7864 C40.5943,19.7874 40.8603,19.5244 40.8623,19.2004 C40.8613,18.8754 40.5963,18.6114 40.2683,18.6104" id="Fill-295"></path>
                <path d="M7.7039,48.1453 C3.5319,48.1453 0.1389,44.8193 0.1389,40.7313 L0.1389,0.2103 L59.1509,0.2103 C63.3229,0.2103 66.7169,3.5373 66.7169,7.6253 L66.7169,40.6293 C66.7169,40.9963 66.3969,41.2923 66.0049,41.2923 C65.6109,41.2923 65.2909,40.9963 65.2909,40.6293 L65.2909,7.6253 C65.2909,4.2953 62.5369,1.5863 59.1509,1.5863 L1.5639,1.5863 L1.5639,40.7813 C1.5639,44.1113 4.3179,46.8203 7.7039,46.8203 L60.1589,46.8203 C60.5519,46.8203 60.8709,47.1173 60.8709,47.4833 C60.8709,47.8483 60.5519,48.1453 60.1589,48.1453 L7.7039,48.1453 Z" id="Fill-297"></path>
                <path d="M36.9285,39.2771 C36.2015,39.2771 35.6115,38.6861 35.6115,37.9601 C35.6115,37.2331 36.2015,36.6411 36.9285,36.6411 C37.6565,36.6411 38.2475,37.2331 38.2475,37.9601 C38.2475,38.6861 37.6565,39.2771 36.9285,39.2771" id="Fill-299"></path>
                <path d="M29.7742,39.3279 C29.0472,39.3279 28.4572,38.7369 28.4572,38.0099 C28.4572,37.2829 29.0472,36.6919 29.7742,36.6919 C30.5012,36.6919 31.0912,37.2829 31.0912,38.0099 C31.0912,38.7369 30.5012,39.3279 29.7742,39.3279" id="Fill-301"></path>
                <path d="M22.6688,39.3279 C21.9418,39.3279 21.3518,38.7369 21.3518,38.0099 C21.3518,37.2829 21.9418,36.6919 22.6688,36.6919 C23.3968,36.6919 23.9878,37.2829 23.9878,38.0099 C23.9878,38.7369 23.3968,39.3279 22.6688,39.3279" id="Fill-303"></path>
                <path d="M44.1863,39.2771 C43.4583,39.2771 42.8673,38.6861 42.8673,37.9601 C42.8533,37.6081 42.9703,37.2981 43.2053,37.0541 C43.4573,36.7921 43.8143,36.6411 44.1863,36.6411 C44.9133,36.6411 45.5033,37.2331 45.5033,37.9601 C45.5033,38.6861 44.9133,39.2771 44.1863,39.2771" id="Fill-305"></path>
            </g>
        </g>
    </g>
</svg>